<svg id="Layer_1" data-name="Layer 1" xmlns="http://www.w3.org/2000/svg" viewBox="0 0 283 283"><defs><style>.cls-1{fill:#ff6a58;}.cls-2{fill:#fff;}</style></defs><circle class="cls-1" cx="141.5" cy="141.5" r="141.5"/><circle class="cls-2" cx="150.5" cy="119.81" r="23.95"/><path class="cls-2" d="M81.86,54.24,96.24,68S68,87.3,67.87,132.17c-.12,35,27.37,58.51,27.37,58.51L82.31,203.37S47,174.61,49.57,128.31,81.86,54.24,81.86,54.24Z" transform="translate(-8.5 -8.5)"/><path class="cls-2" d="M91,140.15c3,30.36,28.55,48.42,28.55,48.42,22.41,15.22,30,40.18,30,40.18,2.11,8,17.34,27.91,47.36,23.68s28.76-37.22,28.76-37.22l-19-.42C202,244,177.44,233.4,172.36,229.59s-9.81-15.39-16.93-29.6c-3.89-7.78-23-25.26-23-25.26s-28.18-22.95-22.69-53.83c10.15-44.82,53.29-46.09,75.7-32.56s21.15,40.18,21.15,40.18l19-.21c.45-13.78-6.15-31.34-19.07-46.47a65.92,65.92,0,0,0-63.17-18.45C104.51,72.39,87.24,102.72,91,140.15Z" transform="translate(-8.5 -8.5)"/></svg>